# xmcd
#
# Track frame offsets:
#	150
#	20042
#	43528
#	58878
#	81475
#	102223
#	124667
#	145496
#	166206
#	184601
#	206006
#	224078
#	244566
#	265015
#	283504
#
# Disc length: 4064 seconds
#
# Revision: 0
# Processed by: cddbd v1.5.2PL0 Copyright (c) Steve Scherf et al.
# Submitted via: EasyCDDAExtractor 2010.6.0.0
#
DISCID=e20fde0f
DTITLE=Various Artist - Southern Soul Hits
DYEAR=2004
DGENRE=R&B
TTITLE0=Short Skirts - The Love Doctor
TTITLE1=For Better Or For Worse - Sir Charles Jones
TTITLE2=Get A Maid - Monique Ford
TTITLE3=Anytime Man - Terry Wright
TTITLE4=2 Much  - Big Ike
TTITLE5=Morning Rain - La Keisha
TTITLE6=Stop Chasing What You Want - Tonya
TTITLE7=Swaying To The Blues - Sorrento Ussery
TTITLE8=Naughty Things - Monquie Ford
TTITLE9=I'm Down For You - Earl Duke
TTITLE10=I'd Like To know - Wilton Lombard
TTITLE11=Make Me Sweet - Sorrento Ussery
TTITLE12=Ooh Wee - Terry Wright
TTITLE13=Know What? - X-Man
TTITLE14=Green Onions - Eric Perkins
EXTD=
EXTT0=
EXTT1=
EXTT2=
EXTT3=
EXTT4=
EXTT5=
EXTT6=
EXTT7=
EXTT8=
EXTT9=
EXTT10=
EXTT11=
EXTT12=
EXTT13=
EXTT14=
PLAYORDER=
